<svg width="148" height="34" viewBox="0 0 148 34" fill="none" xmlns="http://www.w3.org/2000/svg">
<mask id="path-1-outside-1" maskUnits="userSpaceOnUse" x="0" y="0" width="148" height="34" fill="black">
<rect fill="white" width="148" height="34"/>
<path fill-rule="evenodd" clip-rule="evenodd" d="M16.0424 4.92397C16.0424 7.08772 18.6828 8.84801 21.9284 8.84801C22.7398 8.84801 23.5134 8.738 24.2174 8.53917C26.3292 7.94268 27.8145 6.54684 27.8145 4.92404C27.8145 4.80319 27.8063 4.6836 27.7901 4.56551C27.6259 3.36207 26.6431 2.31388 25.2171 1.67107C24.2775 1.24754 23.1455 1 21.9284 1C18.6829 1 16.0424 2.76023 16.0424 4.92397ZM34.149 10.2354L31.5539 12.5479L31.5539 12.5479L26.6292 14.0583L23.2303 12.5519L20.8022 11.4758L19.6665 10.9724C18.7312 10.5579 17.6456 10.3082 16.5231 10.2844C16.4542 10.2829 16.3851 10.2822 16.3158 10.2822C13.543 10.2822 11.0804 11.5246 10.3281 13.3017L5.95438 23.1404H5.92332V24.3225C5.92332 26.3766 8.41838 28.0602 11.4982 28.0637H7.63814C3.97204 28.0637 1 30.0631 1 32.5072V33H20.0041C24.0785 33 27.3814 30.78 27.3814 28.0637C27.3814 25.3475 24.0785 23.1405 20.0041 23.1404H18.7044L20.7957 18.8943L20.8022 18.8968V18.8968L26.9487 21.2016L26.9487 21.2016L30.052 19.3272L30.052 19.3272C32.4486 17.8797 33.8201 15.8329 33.8201 13.6771V13.6771L36.4147 11.3656L34.149 10.2354ZM52.1425 10.744C51.2465 9.912 49.9665 9.496 48.3025 9.496L41.7745 9.52L41.9905 20.416L41.7745 25H45.6865L45.5425 20.296H46.9345C48.2465 20.296 49.3985 20.048 50.3905 19.552C51.3825 19.056 52.1505 18.36 52.6945 17.464C53.2385 16.552 53.5105 15.496 53.5105 14.296C53.5105 12.76 53.0545 11.576 52.1425 10.744ZM48.9745 16.504C48.6865 16.952 48.2385 17.28 47.6305 17.488L45.5905 17.392L45.7105 12.352L47.0065 12.28C47.8385 12.312 48.4465 12.52 48.8305 12.904C49.2305 13.288 49.4305 13.88 49.4305 14.68C49.4305 15.432 49.2785 16.04 48.9745 16.504ZM62.2323 13.792C61.9443 13.76 61.7523 13.744 61.6563 13.744C60.4883 13.744 59.5283 14.456 58.7763 15.88H58.6083V13.72L54.9843 14.008L55.1523 20.416L54.9603 25H58.7523L58.5843 20.032V18.616C59.3043 17.688 60.0963 17.224 60.9603 17.224C61.3283 17.224 61.6243 17.28 61.8483 17.392L62.2323 17.272V13.792ZM71.1749 14.392C70.4389 13.816 69.4069 13.528 68.0789 13.528C67.2789 13.528 66.4629 13.64 65.6309 13.864C64.7989 14.088 64.0229 14.4 63.3029 14.8L63.7349 17.272L63.9749 17.44C64.6949 16.992 65.3269 16.664 65.8709 16.456C66.4309 16.248 66.9509 16.144 67.4309 16.144C67.9109 16.144 68.2549 16.256 68.4629 16.48C68.6869 16.688 68.7989 17.04 68.7989 17.536V18.232L65.2469 18.832C63.5189 19.12 62.6549 20.088 62.6549 21.736C62.6549 22.808 62.9909 23.656 63.6629 24.28C64.3509 24.904 65.2869 25.224 66.4709 25.24C67.3029 24.92 68.1189 24.336 68.9189 23.488H69.0869C69.2309 24.016 69.4709 24.424 69.8069 24.712C70.1429 25 70.5509 25.168 71.0309 25.216C71.7989 25.152 72.4469 24.936 72.9749 24.568L73.3109 22.576L73.0469 22.36C72.8389 22.424 72.6629 22.456 72.5189 22.456C72.3429 22.456 72.2149 22.408 72.1349 22.312C72.0709 22.216 72.0389 22.056 72.0389 21.832C72.0389 21.4 72.0789 20.608 72.1589 19.456C72.1749 19.024 72.1989 18.568 72.2309 18.088C72.2629 17.608 72.2789 17.184 72.2789 16.816C72.2789 15.76 71.9109 14.952 71.1749 14.392ZM66.1829 20.704C66.3109 20.56 66.4949 20.464 66.7349 20.416L68.7989 20.008L68.7749 21.736C68.1989 22.28 67.6549 22.552 67.1429 22.552C66.7909 22.552 66.5109 22.448 66.3029 22.24C66.1109 22.032 66.0149 21.736 66.0149 21.352C66.0149 21.064 66.0709 20.848 66.1829 20.704ZM79.2948 21.256L77.6148 15.616L77.2308 13.696L73.6308 13.84L77.7108 25C77.1028 25.576 76.4708 26.016 75.8148 26.32C75.1588 26.624 74.3748 26.848 73.4628 26.992L73.3188 27.352C73.7988 28.248 74.3508 29 74.9748 29.608L75.2388 29.632C76.4228 29.28 77.3828 28.88 78.1188 28.432C78.8708 28 79.4948 27.44 79.9908 26.752C80.4868 26.064 80.9188 25.168 81.2868 24.064L84.7908 13.768H81.5748L81.1428 15.952L79.5108 21.256H79.2948ZM88.4937 20.056L94.7817 20.008L95.1897 19.528C95.2857 19.016 95.3337 18.528 95.3337 18.064C95.3337 16.64 94.9177 15.528 94.0857 14.728C93.2697 13.928 92.1177 13.528 90.6297 13.528C88.9017 13.528 87.5337 14.056 86.5257 15.112C85.5177 16.152 85.0137 17.584 85.0137 19.408C85.0137 21.232 85.5337 22.664 86.5737 23.704C87.6297 24.744 89.0777 25.264 90.9177 25.264C91.9577 25.264 93.1177 25.064 94.3977 24.664L94.9737 21.952L94.6857 21.76C93.2937 22.256 92.1737 22.504 91.3257 22.504C90.4777 22.504 89.8217 22.304 89.3577 21.904C88.8937 21.504 88.6057 20.888 88.4937 20.056ZM90.6057 16C91.5657 16 92.0457 16.552 92.0457 17.656L91.9977 17.992L88.5417 18.088C88.6697 17.416 88.9097 16.904 89.2617 16.552C89.6137 16.184 90.0617 16 90.6057 16ZM104.443 13.792C104.155 13.76 103.963 13.744 103.867 13.744C102.699 13.744 101.739 14.456 100.987 15.88H100.819V13.72L97.1952 14.008L97.3632 20.416L97.1712 25H100.963L100.795 20.032V18.616C101.515 17.688 102.307 17.224 103.171 17.224C103.539 17.224 103.835 17.28 104.059 17.392L104.443 17.272V13.792ZM118.385 25H122.345L117.809 9.52H113.129L108.137 25H111.953L112.385 22.528L112.577 21.904L114.977 21.832L117.761 21.88L117.977 22.768L118.385 25ZM115.505 13.072L117.017 18.952L115.241 19L113.465 18.952L115.265 13.072H115.505ZM133.02 15.064C132.252 14.104 131.172 13.624 129.78 13.624C129.3 13.816 128.86 14.048 128.46 14.32C128.076 14.592 127.676 14.944 127.26 15.376H127.092V13.72L123.468 14.008L123.636 20.416L123.468 29.44H127.236L127.164 25.144C127.676 25.224 128.124 25.264 128.508 25.264C130.316 25.264 131.708 24.728 132.684 23.656C133.676 22.584 134.172 21.064 134.172 19.096C134.172 17.352 133.788 16.008 133.02 15.064ZM130.62 19.648C130.62 21.776 129.892 22.84 128.436 22.84C128.068 22.84 127.628 22.76 127.116 22.6L127.068 20.032V17.344C127.628 16.88 128.172 16.648 128.7 16.648C129.964 16.648 130.604 17.648 130.62 19.648ZM145.583 15.064C144.815 14.104 143.735 13.624 142.343 13.624C141.863 13.816 141.423 14.048 141.023 14.32C140.639 14.592 140.239 14.944 139.823 15.376H139.655V13.72L136.031 14.008L136.199 20.416L136.031 29.44H139.799L139.727 25.144C140.239 25.224 140.687 25.264 141.071 25.264C142.879 25.264 144.271 24.728 145.247 23.656C146.239 22.584 146.735 21.064 146.735 19.096C146.735 17.352 146.351 16.008 145.583 15.064ZM143.183 19.648C143.183 21.776 142.455 22.84 140.999 22.84C140.631 22.84 140.191 22.76 139.679 22.6L139.631 20.032V17.344C140.191 16.88 140.735 16.648 141.263 16.648C142.527 16.648 143.167 17.648 143.183 19.648Z"/>
</mask>
<g filter="url(#filter0_i)">
<path fill-rule="evenodd" clip-rule="evenodd" d="M16.0424 4.92397C16.0424 7.08772 18.6828 8.84801 21.9284 8.84801C22.7398 8.84801 23.5134 8.738 24.2174 8.53917C26.3292 7.94268 27.8145 6.54684 27.8145 4.92404C27.8145 4.80319 27.8063 4.6836 27.7901 4.56551C27.6259 3.36207 26.6431 2.31388 25.2171 1.67107C24.2775 1.24754 23.1455 1 21.9284 1C18.6829 1 16.0424 2.76023 16.0424 4.92397ZM34.149 10.2354L31.5539 12.5479L31.5539 12.5479L26.6292 14.0583L23.2303 12.5519L20.8022 11.4758L19.6665 10.9724C18.7312 10.5579 17.6456 10.3082 16.5231 10.2844C16.4542 10.2829 16.3851 10.2822 16.3158 10.2822C13.543 10.2822 11.0804 11.5246 10.3281 13.3017L5.95438 23.1404H5.92332V24.3225C5.92332 26.3766 8.41838 28.0602 11.4982 28.0637H7.63814C3.97204 28.0637 1 30.0631 1 32.5072V33H20.0041C24.0785 33 27.3814 30.78 27.3814 28.0637C27.3814 25.3475 24.0785 23.1405 20.0041 23.1404H18.7044L20.7957 18.8943L20.8022 18.8968V18.8968L26.9487 21.2016L26.9487 21.2016L30.052 19.3272L30.052 19.3272C32.4486 17.8797 33.8201 15.8329 33.8201 13.6771V13.6771L36.4147 11.3656L34.149 10.2354ZM52.1425 10.744C51.2465 9.912 49.9665 9.496 48.3025 9.496L41.7745 9.52L41.9905 20.416L41.7745 25H45.6865L45.5425 20.296H46.9345C48.2465 20.296 49.3985 20.048 50.3905 19.552C51.3825 19.056 52.1505 18.36 52.6945 17.464C53.2385 16.552 53.5105 15.496 53.5105 14.296C53.5105 12.76 53.0545 11.576 52.1425 10.744ZM48.9745 16.504C48.6865 16.952 48.2385 17.28 47.6305 17.488L45.5905 17.392L45.7105 12.352L47.0065 12.28C47.8385 12.312 48.4465 12.52 48.8305 12.904C49.2305 13.288 49.4305 13.88 49.4305 14.68C49.4305 15.432 49.2785 16.04 48.9745 16.504ZM62.2323 13.792C61.9443 13.76 61.7523 13.744 61.6563 13.744C60.4883 13.744 59.5283 14.456 58.7763 15.88H58.6083V13.72L54.9843 14.008L55.1523 20.416L54.9603 25H58.7523L58.5843 20.032V18.616C59.3043 17.688 60.0963 17.224 60.9603 17.224C61.3283 17.224 61.6243 17.28 61.8483 17.392L62.2323 17.272V13.792ZM71.1749 14.392C70.4389 13.816 69.4069 13.528 68.0789 13.528C67.2789 13.528 66.4629 13.64 65.6309 13.864C64.7989 14.088 64.0229 14.4 63.3029 14.8L63.7349 17.272L63.9749 17.44C64.6949 16.992 65.3269 16.664 65.8709 16.456C66.4309 16.248 66.9509 16.144 67.4309 16.144C67.9109 16.144 68.2549 16.256 68.4629 16.48C68.6869 16.688 68.7989 17.04 68.7989 17.536V18.232L65.2469 18.832C63.5189 19.12 62.6549 20.088 62.6549 21.736C62.6549 22.808 62.9909 23.656 63.6629 24.28C64.3509 24.904 65.2869 25.224 66.4709 25.24C67.3029 24.92 68.1189 24.336 68.9189 23.488H69.0869C69.2309 24.016 69.4709 24.424 69.8069 24.712C70.1429 25 70.5509 25.168 71.0309 25.216C71.7989 25.152 72.4469 24.936 72.9749 24.568L73.3109 22.576L73.0469 22.36C72.8389 22.424 72.6629 22.456 72.5189 22.456C72.3429 22.456 72.2149 22.408 72.1349 22.312C72.0709 22.216 72.0389 22.056 72.0389 21.832C72.0389 21.4 72.0789 20.608 72.1589 19.456C72.1749 19.024 72.1989 18.568 72.2309 18.088C72.2629 17.608 72.2789 17.184 72.2789 16.816C72.2789 15.76 71.9109 14.952 71.1749 14.392ZM66.1829 20.704C66.3109 20.56 66.4949 20.464 66.7349 20.416L68.7989 20.008L68.7749 21.736C68.1989 22.28 67.6549 22.552 67.1429 22.552C66.7909 22.552 66.5109 22.448 66.3029 22.24C66.1109 22.032 66.0149 21.736 66.0149 21.352C66.0149 21.064 66.0709 20.848 66.1829 20.704ZM79.2948 21.256L77.6148 15.616L77.2308 13.696L73.6308 13.84L77.7108 25C77.1028 25.576 76.4708 26.016 75.8148 26.32C75.1588 26.624 74.3748 26.848 73.4628 26.992L73.3188 27.352C73.7988 28.248 74.3508 29 74.9748 29.608L75.2388 29.632C76.4228 29.28 77.3828 28.88 78.1188 28.432C78.8708 28 79.4948 27.44 79.9908 26.752C80.4868 26.064 80.9188 25.168 81.2868 24.064L84.7908 13.768H81.5748L81.1428 15.952L79.5108 21.256H79.2948ZM88.4937 20.056L94.7817 20.008L95.1897 19.528C95.2857 19.016 95.3337 18.528 95.3337 18.064C95.3337 16.64 94.9177 15.528 94.0857 14.728C93.2697 13.928 92.1177 13.528 90.6297 13.528C88.9017 13.528 87.5337 14.056 86.5257 15.112C85.5177 16.152 85.0137 17.584 85.0137 19.408C85.0137 21.232 85.5337 22.664 86.5737 23.704C87.6297 24.744 89.0777 25.264 90.9177 25.264C91.9577 25.264 93.1177 25.064 94.3977 24.664L94.9737 21.952L94.6857 21.76C93.2937 22.256 92.1737 22.504 91.3257 22.504C90.4777 22.504 89.8217 22.304 89.3577 21.904C88.8937 21.504 88.6057 20.888 88.4937 20.056ZM90.6057 16C91.5657 16 92.0457 16.552 92.0457 17.656L91.9977 17.992L88.5417 18.088C88.6697 17.416 88.9097 16.904 89.2617 16.552C89.6137 16.184 90.0617 16 90.6057 16ZM104.443 13.792C104.155 13.76 103.963 13.744 103.867 13.744C102.699 13.744 101.739 14.456 100.987 15.88H100.819V13.72L97.1952 14.008L97.3632 20.416L97.1712 25H100.963L100.795 20.032V18.616C101.515 17.688 102.307 17.224 103.171 17.224C103.539 17.224 103.835 17.28 104.059 17.392L104.443 17.272V13.792ZM118.385 25H122.345L117.809 9.52H113.129L108.137 25H111.953L112.385 22.528L112.577 21.904L114.977 21.832L117.761 21.88L117.977 22.768L118.385 25ZM115.505 13.072L117.017 18.952L115.241 19L113.465 18.952L115.265 13.072H115.505ZM133.02 15.064C132.252 14.104 131.172 13.624 129.78 13.624C129.3 13.816 128.86 14.048 128.46 14.32C128.076 14.592 127.676 14.944 127.26 15.376H127.092V13.72L123.468 14.008L123.636 20.416L123.468 29.44H127.236L127.164 25.144C127.676 25.224 128.124 25.264 128.508 25.264C130.316 25.264 131.708 24.728 132.684 23.656C133.676 22.584 134.172 21.064 134.172 19.096C134.172 17.352 133.788 16.008 133.02 15.064ZM130.62 19.648C130.62 21.776 129.892 22.84 128.436 22.84C128.068 22.84 127.628 22.76 127.116 22.6L127.068 20.032V17.344C127.628 16.88 128.172 16.648 128.7 16.648C129.964 16.648 130.604 17.648 130.62 19.648ZM145.583 15.064C144.815 14.104 143.735 13.624 142.343 13.624C141.863 13.816 141.423 14.048 141.023 14.32C140.639 14.592 140.239 14.944 139.823 15.376H139.655V13.72L136.031 14.008L136.199 20.416L136.031 29.44H139.799L139.727 25.144C140.239 25.224 140.687 25.264 141.071 25.264C142.879 25.264 144.271 24.728 145.247 23.656C146.239 22.584 146.735 21.064 146.735 19.096C146.735 17.352 146.351 16.008 145.583 15.064ZM143.183 19.648C143.183 21.776 142.455 22.84 140.999 22.84C140.631 22.84 140.191 22.76 139.679 22.6L139.631 20.032V17.344C140.191 16.88 140.735 16.648 141.263 16.648C142.527 16.648 143.167 17.648 143.183 19.648Z" fill="#FF5A5F"/>
</g>
<path d="M24.2174 8.53917L23.9456 7.57682L23.9456 7.57682L24.2174 8.53917ZM27.7901 4.56551L26.7993 4.70075L26.7993 4.70075L27.7901 4.56551ZM25.2171 1.67107L24.8061 2.58273L24.8061 2.58273L25.2171 1.67107ZM31.5539 12.5479L31.7183 13.5343L32.0034 13.4868L32.2192 13.2945L31.5539 12.5479ZM34.149 10.2354L34.5955 9.34054L33.9894 9.03819L33.4838 9.48878L34.149 10.2354ZM31.5539 12.5479L31.3895 11.5615L31.3241 11.5724L31.2607 11.5919L31.5539 12.5479ZM26.6292 14.0583L26.224 14.9726L26.5654 15.1239L26.9224 15.0144L26.6292 14.0583ZM23.2303 12.5519L22.8251 13.4662L22.8251 13.4662L23.2303 12.5519ZM20.8022 11.4758L21.2074 10.5615L21.2074 10.5615L20.8022 11.4758ZM19.6665 10.9724L19.2613 11.8867L19.2613 11.8867L19.6665 10.9724ZM16.5231 10.2844L16.5444 9.28459L16.544 9.28458L16.5231 10.2844ZM10.3281 13.3017L11.2419 13.708L11.2455 13.6998L11.249 13.6916L10.3281 13.3017ZM5.95438 23.1404V24.1404H6.60419L6.86816 23.5466L5.95438 23.1404ZM5.92332 23.1404V22.1404H4.92332V23.1404H5.92332ZM11.4982 28.0637V29.0637L11.4994 27.0637L11.4982 28.0637ZM1 33H0V34H1V33ZM27.3814 28.0637L26.3814 28.0637V28.0637H27.3814ZM20.0041 23.1404L20.0041 22.1404H20.0041V23.1404ZM18.7044 23.1404L17.8073 22.6986L17.0972 24.1404H18.7044V23.1404ZM20.7957 18.8943L21.1469 17.958L20.2988 17.64L19.8986 18.4525L20.7957 18.8943ZM20.8022 18.8968H21.8022V18.2038L21.1533 17.9604L20.8022 18.8968ZM20.8022 18.8968H19.8022V19.5899L20.4511 19.8332L20.8022 18.8968ZM26.9487 21.2016L26.5976 22.138L27.2005 22.3641L27.6558 21.9088L26.9487 21.2016ZM26.9487 21.2016L26.4317 20.3457L26.3276 20.4085L26.2416 20.4945L26.9487 21.2016ZM30.052 19.3272L30.569 20.1832L30.6399 20.1404L30.7028 20.0865L30.052 19.3272ZM30.052 19.3272L29.535 18.4712L29.4641 18.5141L29.4012 18.568L30.052 19.3272ZM33.8201 13.6771L33.1549 12.9304L32.8201 13.2287V13.6771H33.8201ZM36.4147 11.3656L37.0799 12.1123L38.1825 11.13L36.8611 10.4708L36.4147 11.3656ZM48.3025 9.496L48.3025 8.49599L48.2988 8.49601L48.3025 9.496ZM52.1425 10.744L51.462 11.4768L51.4686 11.4828L52.1425 10.744ZM41.7745 9.52L41.7708 8.52001L40.7546 8.52374L40.7747 9.53982L41.7745 9.52ZM41.9905 20.416L42.9894 20.4631L42.991 20.4296L42.9903 20.3962L41.9905 20.416ZM41.7745 25L40.7756 24.9529L40.7263 26H41.7745V25ZM45.6865 25V26H46.7176L46.686 24.9694L45.6865 25ZM45.5425 20.296V19.296H44.5114L44.543 20.3266L45.5425 20.296ZM52.6945 17.464L53.5493 17.983L53.5533 17.9763L52.6945 17.464ZM47.6305 17.488L47.5835 18.4869L47.7739 18.4959L47.9542 18.4342L47.6305 17.488ZM48.9745 16.504L48.138 15.956L48.1333 15.9632L48.9745 16.504ZM45.5905 17.392L44.5908 17.3682L44.5675 18.345L45.5435 18.3909L45.5905 17.392ZM45.7105 12.352L45.655 11.3535L44.7328 11.4048L44.7108 12.3282L45.7105 12.352ZM47.0065 12.28L47.0449 11.2807L46.998 11.2789L46.951 11.2815L47.0065 12.28ZM48.8305 12.904L48.1234 13.6111L48.1306 13.6183L48.138 13.6254L48.8305 12.904ZM62.2323 13.792H63.2323V12.897L62.3427 12.7981L62.2323 13.792ZM58.7763 15.88V16.88H59.379L59.6605 16.347L58.7763 15.88ZM58.6083 15.88H57.6083V16.88H58.6083V15.88ZM58.6083 13.72H59.6083V12.6374L58.529 12.7231L58.6083 13.72ZM54.9843 14.008L54.905 13.0111L53.9598 13.0863L53.9846 14.0342L54.9843 14.008ZM55.1523 20.416L56.1514 20.4578L56.1528 20.4238L56.1519 20.3898L55.1523 20.416ZM54.9603 25L53.9611 24.9582L53.9175 26H54.9603V25ZM58.7523 25V26H59.7866L59.7517 24.9662L58.7523 25ZM58.5843 20.032H57.5843V20.0489L57.5848 20.0658L58.5843 20.032ZM58.5843 18.616L57.7942 18.003L57.5843 18.2736V18.616H58.5843ZM61.8483 17.392L61.401 18.2864L61.7617 18.4667L62.1465 18.3465L61.8483 17.392ZM62.2323 17.272L62.5305 18.2265L63.2323 18.0072V17.272H62.2323ZM71.1749 14.392L70.5585 15.1796L70.5694 15.1878L71.1749 14.392ZM63.3029 14.8L62.8172 13.9258L62.1953 14.2713L62.3178 14.9721L63.3029 14.8ZM63.7349 17.272L62.7498 17.4441L62.8213 17.8531L63.1614 18.0912L63.7349 17.272ZM63.9749 17.44L63.4014 18.2592L63.9425 18.638L64.5032 18.2891L63.9749 17.44ZM65.8709 16.456L65.5227 15.5185L65.5137 15.5219L65.8709 16.456ZM68.4629 16.48L67.7301 17.1605L67.7553 17.1876L67.7824 17.2128L68.4629 16.48ZM68.7989 18.232L68.9654 19.218L69.7989 19.0772V18.232H68.7989ZM65.2469 18.832L65.4113 19.8184L65.4134 19.818L65.2469 18.832ZM63.6629 24.28L62.9824 25.0128L62.9911 25.0207L63.6629 24.28ZM66.4709 25.24L66.4574 26.2399L66.65 26.2425L66.8299 26.1733L66.4709 25.24ZM68.9189 23.488V22.488H68.4875L68.1915 22.8018L68.9189 23.488ZM69.0869 23.488L70.0517 23.2249L69.8507 22.488H69.0869V23.488ZM69.8069 24.712L69.1561 25.4713L69.1561 25.4713L69.8069 24.712ZM71.0309 25.216L70.9314 26.211L71.0226 26.2202L71.1139 26.2125L71.0309 25.216ZM72.9749 24.568L73.5467 25.3884L73.8911 25.1483L73.961 24.7343L72.9749 24.568ZM73.3109 22.576L74.297 22.7423L74.3935 22.1697L73.9441 21.802L73.3109 22.576ZM73.0469 22.36L73.6801 21.586L73.2652 21.2466L72.7528 21.4042L73.0469 22.36ZM72.1349 22.312L71.3028 22.8667L71.3325 22.9111L71.3667 22.9522L72.1349 22.312ZM72.1589 19.456L73.1565 19.5253L73.1576 19.5092L73.1582 19.493L72.1589 19.456ZM66.7349 20.416L66.541 19.435L66.5388 19.4354L66.7349 20.416ZM66.1829 20.704L65.4355 20.0396L65.4137 20.0642L65.3936 20.09L66.1829 20.704ZM68.7989 20.008L69.7988 20.0219L69.8159 18.7876L68.605 19.027L68.7989 20.008ZM68.7749 21.736L69.4615 22.463L69.7689 22.1727L69.7748 21.7499L68.7749 21.736ZM66.3029 22.24L65.5681 22.9183L65.5816 22.933L65.5958 22.9471L66.3029 22.24ZM77.6148 15.616L76.6342 15.8121L76.6432 15.8573L76.6564 15.9015L77.6148 15.616ZM79.2948 21.256L78.3364 21.5415L78.5492 22.256H79.2948V21.256ZM77.2308 13.696L78.2113 13.4999L78.0439 12.6627L77.1908 12.6968L77.2308 13.696ZM73.6308 13.84L73.5908 12.8408L72.2208 12.8956L72.6916 14.1834L73.6308 13.84ZM77.7108 25L78.3985 25.726L78.8756 25.2739L78.65 24.6566L77.7108 25ZM75.8148 26.32L76.2352 27.2273L76.2352 27.2273L75.8148 26.32ZM73.4628 26.992L73.3068 26.0042L72.7454 26.0929L72.5343 26.6206L73.4628 26.992ZM73.3188 27.352L72.3903 26.9806L72.2172 27.4134L72.4373 27.8242L73.3188 27.352ZM74.9748 29.608L74.2769 30.3242L74.531 30.5718L74.8842 30.6039L74.9748 29.608ZM75.2388 29.632L75.1482 30.6279L75.3396 30.6453L75.5237 30.5905L75.2388 29.632ZM78.1188 28.432L77.6206 27.5649L77.6096 27.5712L77.5988 27.5778L78.1188 28.432ZM79.9908 26.752L79.1796 26.1672L79.1796 26.1672L79.9908 26.752ZM81.2868 24.064L80.3401 23.7418L80.3381 23.7478L81.2868 24.064ZM84.7908 13.768L85.7374 14.0902L86.1874 12.768H84.7908V13.768ZM81.5748 13.768V12.768H80.7532L80.5938 13.574L81.5748 13.768ZM81.1428 15.952L82.0985 16.2461L82.1137 16.1967L82.1238 16.146L81.1428 15.952ZM79.5108 21.256V22.256H80.2493L80.4665 21.5501L79.5108 21.256ZM94.7817 20.008L94.7893 21.008L95.2471 21.0045L95.5436 20.6556L94.7817 20.008ZM88.4937 20.056L88.4861 19.056L87.3512 19.0647L87.5026 20.1894L88.4937 20.056ZM95.1897 19.528L95.9516 20.1756L96.1236 19.9733L96.1726 19.7123L95.1897 19.528ZM94.0857 14.728L93.3856 15.4421L93.3926 15.4488L94.0857 14.728ZM86.5257 15.112L87.2438 15.808L87.2491 15.8025L86.5257 15.112ZM86.5737 23.704L85.8666 24.4111L85.872 24.4165L86.5737 23.704ZM94.3977 24.664L94.696 25.6185L95.2544 25.444L95.3759 24.8718L94.3977 24.664ZM94.9737 21.952L95.9519 22.1598L96.0928 21.4962L95.5284 21.1199L94.9737 21.952ZM94.6857 21.76L95.2404 20.9279L94.8228 20.6496L94.35 20.818L94.6857 21.76ZM89.3577 21.904L90.0106 21.1466L90.0106 21.1466L89.3577 21.904ZM92.0457 17.656L93.0357 17.7974L93.0457 17.7271V17.656H92.0457ZM91.9977 17.992L92.0255 18.9916L92.8684 18.9682L92.9877 18.1334L91.9977 17.992ZM88.5417 18.088L87.5594 17.9009L87.3267 19.1221L88.5695 19.0876L88.5417 18.088ZM89.2617 16.552L89.9688 17.2591L89.9767 17.2513L89.9843 17.2432L89.2617 16.552ZM104.443 13.792H105.443V12.897L104.554 12.7981L104.443 13.792ZM100.987 15.88V16.88H101.59L101.871 16.347L100.987 15.88ZM100.819 15.88H99.8192V16.88H100.819V15.88ZM100.819 13.72H101.819V12.6374L100.74 12.7231L100.819 13.72ZM97.1952 14.008L97.116 13.0111L96.1707 13.0863L96.1955 14.0342L97.1952 14.008ZM97.3632 20.416L98.3623 20.4578L98.3637 20.4238L98.3629 20.3898L97.3632 20.416ZM97.1712 25L96.1721 24.9582L96.1284 26H97.1712V25ZM100.963 25V26H101.998L101.963 24.9662L100.963 25ZM100.795 20.032H99.7952V20.0489L99.7958 20.0658L100.795 20.032ZM100.795 18.616L100.005 18.003L99.7952 18.2736V18.616H100.795ZM104.059 17.392L103.612 18.2864L103.973 18.4667L104.357 18.3465L104.059 17.392ZM104.443 17.272L104.741 18.2265L105.443 18.0072V17.272H104.443ZM122.345 25V26H123.68L123.305 24.7188L122.345 25ZM118.385 25L117.401 25.1798L117.551 26H118.385V25ZM117.809 9.52L118.769 9.2388L118.558 8.52H117.809V9.52ZM113.129 9.52V8.52H112.401L112.177 9.21308L113.129 9.52ZM108.137 25L107.185 24.6931L106.764 26H108.137V25ZM111.953 25V26H112.793L112.938 25.1721L111.953 25ZM112.385 22.528L111.429 22.2339L111.411 22.294L111.4 22.3559L112.385 22.528ZM112.577 21.904L112.547 20.9044L111.832 20.9259L111.621 21.6099L112.577 21.904ZM114.977 21.832L114.994 20.8321L114.971 20.8317L114.947 20.8325L114.977 21.832ZM117.761 21.88L118.733 21.6436L118.55 20.8935L117.778 20.8801L117.761 21.88ZM117.977 22.768L118.961 22.5882L118.955 22.5597L118.949 22.5316L117.977 22.768ZM117.017 18.952L117.044 19.9516L118.298 19.9177L117.985 18.703L117.017 18.952ZM115.505 13.072L116.473 12.823L116.28 12.072H115.505V13.072ZM115.241 19L115.214 19.9996L115.241 20.0004L115.268 19.9996L115.241 19ZM113.465 18.952L112.509 18.6593L112.124 19.9161L113.438 19.9516L113.465 18.952ZM115.265 13.072V12.072H114.525L114.309 12.7793L115.265 13.072ZM129.78 13.624V12.624H129.587L129.409 12.6955L129.78 13.624ZM133.02 15.064L132.239 15.6887L132.244 15.6951L133.02 15.064ZM128.46 14.32L127.898 13.4931L127.89 13.4984L127.882 13.504L128.46 14.32ZM127.26 15.376V16.376H127.685L127.98 16.0696L127.26 15.376ZM127.092 15.376H126.092V16.376H127.092V15.376ZM127.092 13.72H128.092V12.6374L127.013 12.7231L127.092 13.72ZM123.468 14.008L123.389 13.0111L122.444 13.0863L122.468 14.0342L123.468 14.008ZM123.636 20.416L124.636 20.4346L124.636 20.4122L124.636 20.3898L123.636 20.416ZM123.468 29.44L122.468 29.4214L122.449 30.44H123.468V29.44ZM127.236 29.44V30.44H128.253L128.236 29.4232L127.236 29.44ZM127.164 25.144L127.318 24.156L126.144 23.9725L126.164 25.1608L127.164 25.144ZM132.684 23.656L131.95 22.9768L131.945 22.9828L132.684 23.656ZM130.62 19.648L131.62 19.648L131.62 19.64L130.62 19.648ZM127.116 22.6L126.116 22.6187L126.13 23.3395L126.818 23.5545L127.116 22.6ZM127.068 20.032H126.068V20.0413L126.068 20.0507L127.068 20.032ZM127.068 17.344L126.43 16.574L126.068 16.8739V17.344H127.068ZM142.343 13.624V12.624H142.15L141.971 12.6955L142.343 13.624ZM145.583 15.064L144.802 15.6887L144.807 15.6951L145.583 15.064ZM141.023 14.32L140.46 13.4931L140.452 13.4985L140.445 13.504L141.023 14.32ZM139.823 15.376V16.376H140.248L140.543 16.0696L139.823 15.376ZM139.655 15.376H138.655V16.376H139.655V15.376ZM139.655 13.72H140.655V12.6374L139.575 12.7231L139.655 13.72ZM136.031 14.008L135.951 13.0111L135.006 13.0863L135.031 14.0342L136.031 14.008ZM136.199 20.416L137.198 20.4346L137.199 20.4122L137.198 20.3898L136.199 20.416ZM136.031 29.44L135.031 29.4214L135.012 30.44H136.031V29.44ZM139.799 29.44V30.44H140.815L140.798 29.4232L139.799 29.44ZM139.727 25.144L139.881 24.156L138.707 23.9725L138.727 25.1608L139.727 25.144ZM145.247 23.656L144.513 22.9768L144.507 22.9828L145.247 23.656ZM143.183 19.648L144.183 19.648L144.183 19.64L143.183 19.648ZM139.679 22.6L138.679 22.6187L138.692 23.3395L139.38 23.5545L139.679 22.6ZM139.631 20.032H138.631V20.0413L138.631 20.0507L139.631 20.032ZM139.631 17.344L138.993 16.574L138.631 16.8739V17.344H139.631ZM21.9284 7.84801C20.4762 7.84801 19.2035 7.45236 18.323 6.86535C17.4349 6.27326 17.0424 5.56647 17.0424 4.92397H15.0424C15.0424 6.44523 15.9701 7.70045 17.2136 8.52945C18.4647 9.36352 20.1351 9.84801 21.9284 9.84801V7.84801ZM23.9456 7.57682C23.3323 7.75004 22.6503 7.84801 21.9284 7.84801V9.84801C22.8294 9.84801 23.6946 9.72595 24.4892 9.50152L23.9456 7.57682ZM26.8145 4.92404C26.8145 5.88122 25.881 7.03017 23.9456 7.57682L24.4892 9.50152C26.7775 8.85518 28.8145 7.21247 28.8145 4.92404H26.8145ZM26.7993 4.70075C26.8094 4.77433 26.8145 4.84874 26.8145 4.92404H28.8145C28.8145 4.75764 28.8031 4.59287 28.781 4.43027L26.7993 4.70075ZM24.8061 2.58273C26.0569 3.14653 26.6991 3.96643 26.7993 4.70075L28.781 4.43027C28.5527 2.75771 27.2293 1.48122 25.628 0.759413L24.8061 2.58273ZM21.9284 2C23.0133 2 24.0041 2.22121 24.8061 2.58273L25.628 0.759413C24.5509 0.27387 23.2777 0 21.9284 0V2ZM17.0424 4.92397C17.0424 4.2815 17.4349 3.57472 18.323 2.98264C19.2036 2.39564 20.4762 2 21.9284 2V0C20.1351 0 18.4648 0.484479 17.2137 1.31853C15.9702 2.1475 15.0424 3.40271 15.0424 4.92397H17.0424ZM32.2192 13.2945L34.8143 10.9819L33.4838 9.48878L30.8886 11.8013L32.2192 13.2945ZM31.7183 13.5343L31.7183 13.5343L31.3895 11.5615L31.3895 11.5615L31.7183 13.5343ZM26.9224 15.0144L31.8471 13.504L31.2607 11.5919L26.336 13.1023L26.9224 15.0144ZM22.8251 13.4662L26.224 14.9726L27.0344 13.1441L23.6355 11.6377L22.8251 13.4662ZM20.397 12.39L22.8251 13.4662L23.6355 11.6377L21.2074 10.5615L20.397 12.39ZM19.2613 11.8867L20.397 12.39L21.2074 10.5615L20.0717 10.0582L19.2613 11.8867ZM16.5019 11.2841C17.4934 11.3052 18.4483 11.5263 19.2613 11.8867L20.0717 10.0582C19.0141 9.58951 17.7979 9.31118 16.5444 9.28459L16.5019 11.2841ZM16.3158 11.2822C16.3779 11.2822 16.4401 11.2828 16.5023 11.2841L16.544 9.28458C16.4684 9.283 16.3924 9.28217 16.3158 9.28217V11.2822ZM11.249 13.6916C11.5063 13.0838 12.0999 12.4798 13.0146 12.0184C13.92 11.5618 15.0728 11.2822 16.3158 11.2822V9.28217C14.7861 9.28217 13.3211 9.62383 12.114 10.2327C10.9161 10.8368 9.90225 11.7426 9.40721 12.9119L11.249 13.6916ZM6.86816 23.5466L11.2419 13.708L9.41431 12.8955L5.0406 22.7342L6.86816 23.5466ZM5.92332 24.1404H5.95438V22.1404H5.92332V24.1404ZM6.92332 24.3225V23.1404H4.92332V24.3225H6.92332ZM11.4994 27.0637C10.1314 27.0621 8.93721 26.6857 8.11371 26.1322C7.2827 25.5735 6.92332 24.9131 6.92332 24.3225H4.92332C4.92332 25.786 5.81146 26.9944 6.99794 27.792C8.19193 28.5946 9.78522 29.0617 11.497 29.0637L11.4994 27.0637ZM7.63814 29.0637H11.4982V27.0637H7.63814V29.0637ZM2 32.5072C2 31.7223 2.47783 30.8856 3.50114 30.1995C4.51695 29.5185 5.97685 29.0637 7.63814 29.0637V27.0637C5.63333 27.0637 3.77416 27.6086 2.38743 28.5383C1.00819 29.463 0 30.848 0 32.5072H2ZM2 33V32.5072H0V33H2ZM20.0041 32H1V34H20.0041V32ZM26.3814 28.0637C26.3814 28.9846 25.8209 29.9445 24.664 30.7197C23.5144 31.4899 21.8697 32 20.0041 32V34C22.2128 34 24.2567 33.4 25.7773 32.3812C27.2903 31.3674 28.3814 29.8592 28.3814 28.0637H26.3814ZM20.0041 24.1404C21.8709 24.1405 23.516 24.6479 24.6654 25.4152C25.8218 26.1873 26.3814 27.1437 26.3814 28.0637L28.3814 28.0637C28.3814 26.2675 27.2895 24.7623 25.7759 23.7518C24.2551 22.7366 22.2116 22.1405 20.0041 22.1404L20.0041 24.1404ZM18.7044 24.1404H20.0041V22.1404H18.7044V24.1404ZM19.8986 18.4525L17.8073 22.6986L19.6015 23.5823L21.6928 19.3362L19.8986 18.4525ZM21.1533 17.9604L21.1469 17.958L20.4446 19.8306L20.451 19.8331L21.1533 17.9604ZM21.8022 18.8968V18.8968H19.8022V18.8968H21.8022ZM27.2998 20.2653L21.1533 17.9605L20.4511 19.8332L26.5976 22.138L27.2998 20.2653ZM26.2416 20.4945L26.2416 20.4945L27.6558 21.9088L27.6558 21.9087L26.2416 20.4945ZM29.535 18.4713L26.4317 20.3457L27.4657 22.0576L30.569 20.1832L29.535 18.4713ZM29.4012 18.568L29.4012 18.568L30.7028 20.0865L30.7028 20.0865L29.4012 18.568ZM32.8201 13.6771C32.8201 15.3756 31.7366 17.1415 29.535 18.4712L30.569 20.1832C33.1606 18.6179 34.8201 16.2903 34.8201 13.6771H32.8201ZM32.8201 13.6771V13.6771H34.8201V13.6771H32.8201ZM35.7495 10.619L33.1549 12.9304L34.4853 14.4237L37.0799 12.1123L35.7495 10.619ZM33.7026 11.1302L35.9683 12.2605L36.8611 10.4708L34.5955 9.34054L33.7026 11.1302ZM48.3025 10.496C49.8065 10.496 50.8091 10.8705 51.4621 11.4768L52.823 10.0112C51.6839 8.95351 50.1265 8.496 48.3025 8.496V10.496ZM41.7782 10.52L48.3062 10.496L48.2988 8.49601L41.7708 8.52001L41.7782 10.52ZM42.9903 20.3962L42.7743 9.50018L40.7747 9.53982L40.9907 20.4358L42.9903 20.3962ZM42.7734 25.0471L42.9894 20.4631L40.9916 20.3689L40.7756 24.9529L42.7734 25.0471ZM45.6865 24H41.7745V26H45.6865V24ZM44.543 20.3266L44.687 25.0306L46.686 24.9694L46.542 20.2654L44.543 20.3266ZM46.9345 19.296H45.5425V21.296H46.9345V19.296ZM49.9433 18.6576C49.1134 19.0725 48.1195 19.296 46.9345 19.296V21.296C48.3735 21.296 49.6836 21.0235 50.8377 20.4464L49.9433 18.6576ZM51.8397 16.945C51.3993 17.6705 50.777 18.2407 49.9433 18.6576L50.8377 20.4464C51.988 19.8713 52.9017 19.0495 53.5493 17.983L51.8397 16.945ZM52.5105 14.296C52.5105 15.3396 52.2757 16.214 51.8357 16.9517L53.5533 17.9763C54.2013 16.89 54.5105 15.6524 54.5105 14.296H52.5105ZM51.4686 11.4828C52.124 12.0807 52.5105 12.9674 52.5105 14.296H54.5105C54.5105 12.5526 53.985 11.0713 52.8165 10.0052L51.4686 11.4828ZM47.9542 18.4342C48.7299 18.1688 49.3821 17.7192 49.8157 17.0448L48.1333 15.9632C47.9909 16.1848 47.7471 16.3912 47.3068 16.5418L47.9542 18.4342ZM45.5435 18.3909L47.5835 18.4869L47.6775 16.4891L45.6375 16.3931L45.5435 18.3909ZM44.7108 12.3282L44.5908 17.3682L46.5902 17.4158L46.7102 12.3758L44.7108 12.3282ZM46.951 11.2815L45.655 11.3535L45.766 13.3505L47.062 13.2785L46.951 11.2815ZM49.5376 12.1969C48.901 11.5603 47.9987 11.3174 47.0449 11.2807L46.9681 13.2793C47.6783 13.3066 47.992 13.4797 48.1234 13.6111L49.5376 12.1969ZM50.4305 14.68C50.4305 13.7294 50.1927 12.8255 49.523 12.1826L48.138 13.6254C48.2683 13.7505 48.4305 14.0306 48.4305 14.68H50.4305ZM49.811 17.052C50.2534 16.3767 50.4305 15.5594 50.4305 14.68H48.4305C48.4305 15.3046 48.3036 15.7033 48.1381 15.956L49.811 17.052ZM61.6563 14.744C61.6551 14.744 61.6651 14.744 61.6908 14.7455C61.7151 14.7468 61.7476 14.7491 61.7892 14.7525C61.8728 14.7595 61.9829 14.7704 62.1218 14.7859L62.3427 12.7981C62.0642 12.7672 61.817 12.744 61.6563 12.744V14.744ZM59.6605 16.347C60.3144 15.1089 60.996 14.744 61.6563 14.744V12.744C59.9806 12.744 58.7422 13.8031 57.892 15.413L59.6605 16.347ZM58.6083 16.88H58.7763V14.88H58.6083V16.88ZM57.6083 13.72V15.88H59.6083V13.72H57.6083ZM55.0635 15.0049L58.6875 14.7169L58.529 12.7231L54.905 13.0111L55.0635 15.0049ZM56.1519 20.3898L55.9839 13.9818L53.9846 14.0342L54.1526 20.4422L56.1519 20.3898ZM55.9594 25.0418L56.1514 20.4578L54.1531 20.3742L53.9611 24.9582L55.9594 25.0418ZM58.7523 24H54.9603V26H58.7523V24ZM57.5848 20.0658L57.7528 25.0338L59.7517 24.9662L59.5837 19.9982L57.5848 20.0658ZM57.5843 18.616V20.032H59.5843V18.616H57.5843ZM60.9603 16.224C59.6852 16.224 58.6307 16.9248 57.7942 18.003L59.3743 19.229C59.9778 18.4512 60.5074 18.224 60.9603 18.224V16.224ZM62.2955 16.4976C61.8829 16.2913 61.4163 16.224 60.9603 16.224V18.224C61.2403 18.224 61.3656 18.2687 61.401 18.2864L62.2955 16.4976ZM61.934 16.3175L61.55 16.4375L62.1465 18.3465L62.5305 18.2265L61.934 16.3175ZM61.2323 13.792V17.272H63.2323V13.792H61.2323ZM68.0789 14.528C69.2752 14.528 70.0592 14.7887 70.5586 15.1795L71.7912 13.6045C70.8186 12.8433 69.5386 12.528 68.0789 12.528V14.528ZM65.8909 14.8296C66.6446 14.6267 67.3732 14.528 68.0789 14.528V12.528C67.1846 12.528 66.2812 12.6533 65.3709 12.8984L65.8909 14.8296ZM63.7885 15.6742C64.4341 15.3155 65.1339 15.0334 65.8909 14.8296L65.3709 12.8984C64.4639 13.1426 63.6117 13.4845 62.8172 13.9258L63.7885 15.6742ZM64.72 17.0999L64.288 14.6279L62.3178 14.9721L62.7498 17.4441L64.72 17.0999ZM64.5483 16.6208L64.3083 16.4528L63.1614 18.0912L63.4014 18.2592L64.5483 16.6208ZM65.5137 15.5219C64.8899 15.7605 64.1986 16.123 63.4466 16.5909L64.5032 18.2891C65.1911 17.861 65.7639 17.5675 66.228 17.3901L65.5137 15.5219ZM67.4309 15.144C66.807 15.144 66.1679 15.2789 65.5227 15.5186L66.2191 17.3934C66.6939 17.2171 67.0948 17.144 67.4309 17.144V15.144ZM69.1957 15.7995C68.7137 15.2805 68.0334 15.144 67.4309 15.144V17.144C67.5979 17.144 67.6939 17.1641 67.7393 17.1789C67.7793 17.1919 67.7614 17.1942 67.7301 17.1605L69.1957 15.7995ZM69.7989 17.536C69.7989 16.9294 69.6679 16.2343 69.1433 15.7472L67.7824 17.2128C67.7442 17.1773 67.7474 17.1574 67.762 17.2032C67.7782 17.2541 67.7989 17.358 67.7989 17.536H69.7989ZM69.7989 18.232V17.536H67.7989V18.232H69.7989ZM65.4134 19.818L68.9654 19.218L68.6323 17.246L65.0803 17.846L65.4134 19.818ZM63.6549 21.736C63.6549 21.0891 63.821 20.6953 64.0489 20.4399C64.2836 20.177 64.6936 19.938 65.4113 19.8184L65.0825 17.8456C64.0722 18.014 63.1862 18.403 62.5568 19.1081C61.9208 19.8207 61.6549 20.7349 61.6549 21.736H63.6549ZM64.3433 23.5472C63.9099 23.1447 63.6549 22.5812 63.6549 21.736H61.6549C61.6549 23.0348 62.0719 24.1673 62.9824 25.0128L64.3433 23.5472ZM66.4844 24.2401C65.4751 24.2265 64.7969 23.9585 64.3347 23.5393L62.9911 25.0207C63.9049 25.8495 65.0987 26.2215 66.4574 26.2399L66.4844 24.2401ZM68.1915 22.8018C67.4639 23.573 66.768 24.0543 66.1119 24.3067L66.8299 26.1733C67.8377 25.7857 68.7739 25.099 69.6463 24.1742L68.1915 22.8018ZM69.0869 22.488H68.9189V24.488H69.0869V22.488ZM70.4577 23.9527C70.3062 23.8229 70.1555 23.6058 70.0517 23.2249L68.1221 23.7511C68.3062 24.4262 68.6356 25.0251 69.1561 25.4713L70.4577 23.9527ZM71.1304 24.221C70.8347 24.1914 70.6243 24.0956 70.4577 23.9527L69.1561 25.4713C69.6615 25.9044 70.2671 26.1446 70.9314 26.211L71.1304 24.221ZM72.4031 23.7476C72.0458 23.9966 71.575 24.1672 70.9478 24.2195L71.1139 26.2125C72.0228 26.1368 72.848 25.8754 73.5467 25.3884L72.4031 23.7476ZM72.3248 22.4097L71.9888 24.4017L73.961 24.7343L74.297 22.7423L72.3248 22.4097ZM72.4137 23.134L72.6777 23.35L73.9441 21.802L73.6801 21.586L72.4137 23.134ZM72.5189 23.456C72.7996 23.456 73.0811 23.3957 73.341 23.3158L72.7528 21.4042C72.6789 21.427 72.6218 21.4405 72.58 21.4481C72.5375 21.4559 72.5186 21.456 72.5189 21.456V23.456ZM71.3667 22.9522C71.705 23.3581 72.1725 23.456 72.5189 23.456V21.456C72.5198 21.456 72.5315 21.456 72.5519 21.4592C72.5723 21.4625 72.6036 21.4692 72.642 21.4837C72.7247 21.5147 72.8219 21.5743 72.9031 21.6718L71.3667 22.9522ZM71.0389 21.832C71.0389 22.0976 71.0667 22.5125 71.3028 22.8667L72.967 21.7573C73.0003 21.8074 73.0191 21.85 73.0292 21.8769C73.0393 21.9038 73.0429 21.9209 73.0435 21.9239C73.0441 21.9272 73.0428 21.9216 73.0414 21.9049C73.0401 21.8886 73.0389 21.8646 73.0389 21.832H71.0389ZM71.1613 19.3867C71.0815 20.536 71.0389 21.3606 71.0389 21.832H73.0389C73.0389 21.4394 73.0763 20.68 73.1565 19.5253L71.1613 19.3867ZM71.2331 18.0215C71.2005 18.5102 71.176 18.9761 71.1596 19.419L73.1582 19.493C73.1738 19.0719 73.1973 18.6258 73.2287 18.1545L71.2331 18.0215ZM71.2789 16.816C71.2789 17.1563 71.264 17.5573 71.2331 18.0215L73.2287 18.1545C73.2617 17.6587 73.2789 17.2117 73.2789 16.816H71.2789ZM70.5694 15.1878C71.0192 15.5301 71.2789 16.0219 71.2789 16.816H73.2789C73.2789 15.4981 72.8025 14.3739 71.7804 13.5962L70.5694 15.1878ZM66.5388 19.4354C66.1438 19.5144 65.743 19.6937 65.4355 20.0396L66.9303 21.3684C66.9196 21.3803 66.9089 21.3901 66.8991 21.3976C66.8895 21.405 66.8824 21.4091 66.8795 21.4106C66.8741 21.4134 66.8877 21.4052 66.931 21.3966L66.5388 19.4354ZM68.605 19.027L66.541 19.435L66.9288 21.397L68.9928 20.989L68.605 19.027ZM69.7748 21.7499L69.7988 20.0219L67.799 19.9941L67.775 21.7221L69.7748 21.7499ZM67.1429 23.552C68.0193 23.552 68.7982 23.0895 69.4615 22.463L68.0883 21.009C67.5996 21.4705 67.2905 21.552 67.1429 21.552V23.552ZM65.5958 22.9471C66.0274 23.3788 66.5815 23.552 67.1429 23.552V21.552C67.065 21.552 67.0277 21.5405 67.0171 21.5366C67.0097 21.5339 67.0107 21.5336 67.01 21.5329L65.5958 22.9471ZM65.0149 21.352C65.0149 21.8965 65.1526 22.4681 65.5681 22.9183L67.0377 21.5617C67.0491 21.5741 67.046 21.5778 67.0381 21.5535C67.029 21.5253 67.0149 21.4628 67.0149 21.352H65.0149ZM65.3936 20.09C65.086 20.4854 65.0149 20.962 65.0149 21.352H67.0149C67.0149 21.312 67.0168 21.2817 67.0193 21.2599C67.0217 21.2381 67.0243 21.2271 67.0249 21.225C67.0261 21.2202 67.0163 21.2612 66.9722 21.318L65.3936 20.09ZM76.6564 15.9015L78.3364 21.5415L80.2531 20.9705L78.5731 15.3305L76.6564 15.9015ZM76.2502 13.8921L76.6342 15.8121L78.5953 15.4199L78.2113 13.4999L76.2502 13.8921ZM73.6707 14.8392L77.2707 14.6952L77.1908 12.6968L73.5908 12.8408L73.6707 14.8392ZM78.65 24.6566L74.57 13.4966L72.6916 14.1834L76.7716 25.3434L78.65 24.6566ZM76.2352 27.2273C77.0037 26.8712 77.724 26.3649 78.3985 25.726L77.023 24.274C76.4815 24.7871 75.9378 25.1608 75.3943 25.4127L76.2352 27.2273ZM73.6187 27.9798C74.5982 27.8251 75.4757 27.5793 76.2352 27.2273L75.3943 25.4127C74.8418 25.6687 74.1513 25.8709 73.3068 26.0042L73.6187 27.9798ZM74.2472 27.7234L74.3912 27.3634L72.5343 26.6206L72.3903 26.9806L74.2472 27.7234ZM75.6726 28.8918C75.133 28.366 74.6398 27.7002 74.2002 26.8798L72.4373 27.8242C72.9578 28.7958 73.5685 29.634 74.2769 30.3242L75.6726 28.8918ZM75.3293 28.6361L75.0653 28.6121L74.8842 30.6039L75.1482 30.6279L75.3293 28.6361ZM77.5988 27.5778C76.9605 27.9664 76.0877 28.3364 74.9538 28.6735L75.5237 30.5905C76.7578 30.2236 77.805 29.7936 78.6387 29.2862L77.5988 27.5778ZM79.1796 26.1672C78.7686 26.7373 78.2523 27.202 77.6206 27.5649L78.6169 29.2991C79.4893 28.798 80.2209 28.1427 80.8019 27.3368L79.1796 26.1672ZM80.3381 23.7478C79.9911 24.7888 79.599 25.5854 79.1796 26.1672L80.8019 27.3368C81.3745 26.5426 81.8465 25.5472 82.2354 24.3802L80.3381 23.7478ZM83.8441 13.4458L80.3401 23.7418L82.2334 24.3862L85.7374 14.0902L83.8441 13.4458ZM81.5748 14.768H84.7908V12.768H81.5748V14.768ZM82.1238 16.146L82.5558 13.962L80.5938 13.574L80.1618 15.758L82.1238 16.146ZM80.4665 21.5501L82.0985 16.2461L80.187 15.6579L78.555 20.9619L80.4665 21.5501ZM79.2948 22.256H79.5108V20.256H79.2948V22.256ZM94.7741 19.008L88.4861 19.056L88.5013 21.056L94.7893 21.008L94.7741 19.008ZM94.4278 18.8804L94.0198 19.3604L95.5436 20.6556L95.9516 20.1756L94.4278 18.8804ZM94.3337 18.064C94.3337 18.4592 94.2928 18.8852 94.2068 19.3437L96.1726 19.7123C96.2786 19.1468 96.3337 18.5968 96.3337 18.064H94.3337ZM93.3926 15.4488C93.9845 16.0179 94.3337 16.8442 94.3337 18.064H96.3337C96.3337 16.4358 95.8509 15.0381 94.7788 14.0072L93.3926 15.4488ZM90.6297 14.528C91.9381 14.528 92.808 14.8758 93.3856 15.4421L94.7858 14.0139C93.7314 12.9802 92.2973 12.528 90.6297 12.528V14.528ZM87.2491 15.8025C88.0339 14.9803 89.1206 14.528 90.6297 14.528V12.528C88.6828 12.528 87.0335 13.1317 85.8023 14.4215L87.2491 15.8025ZM86.0137 19.408C86.0137 17.7731 86.4604 16.6162 87.2438 15.808L85.8076 14.416C84.575 15.6878 84.0137 17.3949 84.0137 19.408H86.0137ZM87.2808 22.9969C86.4712 22.1873 86.0137 21.0342 86.0137 19.408H84.0137C84.0137 21.4298 84.5962 23.1407 85.8666 24.4111L87.2808 22.9969ZM90.9177 24.264C89.2733 24.264 88.1015 23.8051 87.2754 22.9915L85.872 24.4165C87.1579 25.6829 88.8821 26.264 90.9177 26.264V24.264ZM94.0994 23.7095C92.8896 24.0876 91.8322 24.264 90.9177 24.264V26.264C92.0832 26.264 93.3458 26.0404 94.696 25.6185L94.0994 23.7095ZM93.9955 21.7442L93.4195 24.4562L95.3759 24.8718L95.9519 22.1598L93.9955 21.7442ZM94.131 22.5921L94.419 22.7841L95.5284 21.1199L95.2404 20.9279L94.131 22.5921ZM91.3257 23.504C92.3428 23.504 93.5893 23.2123 95.0214 22.702L94.35 20.818C92.9981 21.2997 92.0046 21.504 91.3257 21.504V23.504ZM88.7048 22.6614C89.4095 23.269 90.3299 23.504 91.3257 23.504V21.504C90.6255 21.504 90.2339 21.3391 90.0106 21.1466L88.7048 22.6614ZM87.5026 20.1894C87.6351 21.1736 87.9966 22.0509 88.7048 22.6614L90.0106 21.1466C89.7908 20.9571 89.5763 20.6024 89.4848 19.9226L87.5026 20.1894ZM93.0457 17.656C93.0457 16.9815 92.9021 16.2889 92.4403 15.7578C91.9553 15.2001 91.2791 15 90.6057 15V17C90.7522 17 90.8362 17.0213 90.8778 17.0372C90.9133 17.0509 90.9244 17.0625 90.9311 17.0702C90.9493 17.0911 91.0457 17.2265 91.0457 17.656H93.0457ZM92.9877 18.1334L93.0357 17.7974L91.0557 17.5146L91.0078 17.8506L92.9877 18.1334ZM88.5695 19.0876L92.0255 18.9916L91.9699 16.9924L88.5139 17.0884L88.5695 19.0876ZM88.5546 15.8449C88.0167 16.3827 87.7112 17.1035 87.5594 17.9009L89.524 18.2751C89.6282 17.7285 89.8027 17.4253 89.9688 17.2591L88.5546 15.8449ZM90.6057 15C89.8096 15 89.0936 15.281 88.5391 15.8608L89.9843 17.2432C90.1338 17.087 90.3138 17 90.6057 17V15ZM103.867 14.744C103.866 14.744 103.876 14.744 103.902 14.7455C103.926 14.7468 103.959 14.7491 104 14.7525C104.084 14.7595 104.194 14.7704 104.333 14.7859L104.554 12.7981C104.275 12.7672 104.028 12.744 103.867 12.744V14.744ZM101.871 16.347C102.525 15.1089 103.207 14.744 103.867 14.744V12.744C102.192 12.744 100.953 13.8031 100.103 15.413L101.871 16.347ZM100.819 16.88H100.987V14.88H100.819V16.88ZM99.8192 13.72V15.88H101.819V13.72H99.8192ZM97.2744 15.0049L100.898 14.7169L100.74 12.7231L97.116 13.0111L97.2744 15.0049ZM98.3629 20.3898L98.1949 13.9818L96.1955 14.0342L96.3635 20.4422L98.3629 20.3898ZM98.1703 25.0418L98.3623 20.4578L96.3641 20.3742L96.1721 24.9582L98.1703 25.0418ZM100.963 24H97.1712V26H100.963V24ZM99.7958 20.0658L99.9638 25.0338L101.963 24.9662L101.795 19.9982L99.7958 20.0658ZM99.7952 18.616V20.032H101.795V18.616H99.7952ZM103.171 16.224C101.896 16.224 100.842 16.9248 100.005 18.003L101.585 19.229C102.189 18.4512 102.718 18.224 103.171 18.224V16.224ZM104.506 16.4976C104.094 16.2913 103.627 16.224 103.171 16.224V18.224C103.451 18.224 103.577 18.2687 103.612 18.2864L104.506 16.4976ZM104.145 16.3175L103.761 16.4375L104.357 18.3465L104.741 18.2265L104.145 16.3175ZM103.443 13.792V17.272H105.443V13.792H103.443ZM122.345 24H118.385V26H122.345V24ZM116.849 9.8012L121.385 25.2812L123.305 24.7188L118.769 9.2388L116.849 9.8012ZM113.129 10.52H117.809V8.52H113.129V10.52ZM109.089 25.3069L114.081 9.82692L112.177 9.21308L107.185 24.6931L109.089 25.3069ZM111.953 24H108.137V26H111.953V24ZM111.4 22.3559L110.968 24.8279L112.938 25.1721L113.37 22.7001L111.4 22.3559ZM111.621 21.6099L111.429 22.2339L113.341 22.8221L113.533 22.1981L111.621 21.6099ZM114.947 20.8325L112.547 20.9044L112.607 22.9035L115.007 22.8316L114.947 20.8325ZM117.778 20.8801L114.994 20.8321L114.96 22.8319L117.744 22.8799L117.778 20.8801ZM118.949 22.5316L118.733 21.6436L116.789 22.1164L117.005 23.0044L118.949 22.5316ZM119.369 24.8202L118.961 22.5882L116.993 22.9478L117.401 25.1798L119.369 24.8202ZM117.985 18.703L116.473 12.823L114.536 13.321L116.048 19.201L117.985 18.703ZM115.268 19.9996L117.044 19.9516L116.99 17.9524L115.214 18.0004L115.268 19.9996ZM113.438 19.9516L115.214 19.9996L115.268 18.0004L113.492 17.9524L113.438 19.9516ZM114.309 12.7793L112.509 18.6593L114.421 19.2447L116.221 13.3647L114.309 12.7793ZM115.505 12.072H115.265V14.072H115.505V12.072ZM129.78 14.624C130.914 14.624 131.688 14.9993 132.239 15.6887L133.801 14.4393C132.816 13.2087 131.43 12.624 129.78 12.624V14.624ZM129.022 15.1469C129.359 14.9183 129.734 14.7195 130.151 14.5525L129.409 12.6955C128.866 12.9125 128.361 13.1777 127.898 13.4931L129.022 15.1469ZM127.98 16.0696C128.364 15.6712 128.717 15.3635 129.038 15.136L127.882 13.504C127.435 13.8205 126.988 14.2168 126.54 14.6824L127.98 16.0696ZM127.092 16.376H127.26V14.376H127.092V16.376ZM126.092 13.72V15.376H128.092V13.72H126.092ZM123.547 15.0049L127.171 14.7169L127.013 12.7231L123.389 13.0111L123.547 15.0049ZM124.636 20.3898L124.468 13.9818L122.468 14.0342L122.636 20.4422L124.636 20.3898ZM124.468 29.4586L124.636 20.4346L122.636 20.3974L122.468 29.4214L124.468 29.4586ZM127.236 28.44H123.468V30.44H127.236V28.44ZM126.164 25.1608L126.236 29.4568L128.236 29.4232L128.164 25.1272L126.164 25.1608ZM128.508 24.264C128.19 24.264 127.796 24.2306 127.318 24.156L127.01 26.132C127.556 26.2174 128.058 26.264 128.508 26.264V24.264ZM131.945 22.9828C131.203 23.7972 130.109 24.264 128.508 24.264V26.264C130.523 26.264 132.213 25.6588 133.424 24.3292L131.945 22.9828ZM133.172 19.096C133.172 20.9012 132.719 22.146 131.95 22.9768L133.418 24.3352C134.633 23.022 135.172 21.2268 135.172 19.096H133.172ZM132.244 15.6951C132.816 16.3976 133.172 17.4846 133.172 19.096H135.172C135.172 17.2194 134.76 15.6184 133.796 14.4329L132.244 15.6951ZM128.436 23.84C129.444 23.84 130.323 23.4497 130.899 22.6067C131.43 21.8318 131.62 20.7949 131.62 19.648H129.62C129.62 20.6291 129.447 21.1882 129.249 21.4773C129.098 21.6983 128.884 21.84 128.436 21.84V23.84ZM126.818 23.5545C127.386 23.7322 127.932 23.84 128.436 23.84V21.84C128.204 21.84 127.87 21.7878 127.414 21.6455L126.818 23.5545ZM126.068 20.0507L126.116 22.6187L128.116 22.5813L128.068 20.0133L126.068 20.0507ZM126.068 17.344V20.032H128.068V17.344H126.068ZM128.7 15.648C127.865 15.648 127.102 16.0171 126.43 16.574L127.706 18.114C128.154 17.7429 128.48 17.648 128.7 17.648V15.648ZM131.62 19.64C131.611 18.5663 131.44 17.5924 130.97 16.8589C130.453 16.0502 129.647 15.648 128.7 15.648V17.648C129.018 17.648 129.163 17.7458 129.286 17.9371C129.456 18.2036 129.613 18.7297 129.62 19.656L131.62 19.64ZM142.343 14.624C143.476 14.624 144.25 14.9993 144.802 15.6887L146.363 14.4393C145.379 13.2087 143.993 12.624 142.343 12.624V14.624ZM141.585 15.1469C141.921 14.9183 142.297 14.7195 142.714 14.5525L141.971 12.6955C141.429 12.9125 140.924 13.1777 140.46 13.4931L141.585 15.1469ZM140.543 16.0696C140.927 15.6712 141.279 15.3635 141.601 15.136L140.445 13.504C139.998 13.8205 139.551 14.2168 139.102 14.6824L140.543 16.0696ZM139.655 16.376H139.823V14.376H139.655V16.376ZM138.655 13.72V15.376H140.655V13.72H138.655ZM136.11 15.0049L139.734 14.7169L139.575 12.7231L135.951 13.0111L136.11 15.0049ZM137.198 20.3898L137.03 13.9818L135.031 14.0342L135.199 20.4422L137.198 20.3898ZM137.03 29.4586L137.198 20.4346L135.199 20.3974L135.031 29.4214L137.03 29.4586ZM139.799 28.44H136.031V30.44H139.799V28.44ZM138.727 25.1608L138.799 29.4568L140.798 29.4232L140.726 25.1272L138.727 25.1608ZM141.071 24.264C140.753 24.264 140.358 24.2306 139.881 24.156L139.572 26.132C140.119 26.2174 140.621 26.264 141.071 26.264V24.264ZM144.507 22.9828C143.766 23.7972 142.672 24.264 141.071 24.264V26.264C143.085 26.264 144.775 25.6588 145.986 24.3292L144.507 22.9828ZM145.735 19.096C145.735 20.9012 145.281 22.146 144.513 22.9768L145.981 24.3352C147.196 23.022 147.735 21.2268 147.735 19.096H145.735ZM144.807 15.6951C145.378 16.3976 145.735 17.4846 145.735 19.096H147.735C147.735 17.2194 147.323 15.6184 146.358 14.4329L144.807 15.6951ZM140.999 23.84C142.007 23.84 142.885 23.4497 143.462 22.6067C143.992 21.8318 144.183 20.7949 144.183 19.648H142.183C142.183 20.6291 142.009 21.1882 141.811 21.4773C141.66 21.6983 141.446 21.84 140.999 21.84V23.84ZM139.38 23.5545C139.949 23.7322 140.495 23.84 140.999 23.84V21.84C140.766 21.84 140.432 21.7878 139.977 21.6455L139.38 23.5545ZM138.631 20.0507L138.679 22.6187L140.678 22.5813L140.63 20.0133L138.631 20.0507ZM138.631 17.344V20.032H140.631V17.344H138.631ZM141.263 15.648C140.427 15.648 139.665 16.0171 138.993 16.574L140.269 18.114C140.716 17.7429 141.042 17.648 141.263 17.648V15.648ZM144.183 19.64C144.174 18.5663 144.002 17.5924 143.533 16.8589C143.015 16.0502 142.209 15.648 141.263 15.648V17.648C141.58 17.648 141.726 17.7458 141.848 17.9371C142.019 18.2036 142.175 18.7297 142.183 19.656L144.183 19.64Z" fill="#1C3144" mask="url(#path-1-outside-1)"/>
<defs>
<filter id="filter0_i" x="0" y="0" width="147.735" height="38" filterUnits="userSpaceOnUse" color-interpolation-filters="sRGB">
<feFlood flood-opacity="0" result="BackgroundImageFix"/>
<feBlend mode="normal" in="SourceGraphic" in2="BackgroundImageFix" result="shape"/>
<feColorMatrix in="SourceAlpha" type="matrix" values="0 0 0 0 0 0 0 0 0 0 0 0 0 0 0 0 0 0 127 0" result="hardAlpha"/>
<feOffset dy="4"/>
<feGaussianBlur stdDeviation="2"/>
<feComposite in2="hardAlpha" operator="arithmetic" k2="-1" k3="1"/>
<feColorMatrix type="matrix" values="0 0 0 0 0 0 0 0 0 0 0 0 0 0 0 0 0 0 0.25 0"/>
<feBlend mode="normal" in2="shape" result="effect1_innerShadow"/>
</filter>
</defs>
</svg>
